<svg width="21" height="21" viewBox="0 0 21 21" fill="none" xmlns="http://www.w3.org/2000/svg">
<path d="M1.125 12.7052L9.36389 3.14809C9.96227 2.45397 11.0377 2.45397 11.6361 3.14809L19.875 12.7052" stroke="#FFB422" stroke-width="2.25" stroke-linecap="round" stroke-linejoin="round"/>
<path d="M4.00961 9.36675L9.36178 3.13124C9.96036 2.43387 11.0396 2.43387 11.6382 3.13124L16.9904 9.36675L17.2961 11.5477C17.5716 13.5129 17.5581 15.508 17.256 17.4693C17.1032 18.4619 16.2491 19.1945 15.2449 19.1945H5.75506C4.75085 19.1945 3.89679 18.4619 3.74395 17.4693C3.44191 15.508 3.42842 13.513 3.7039 11.5477L4.00961 9.36675Z" fill="#FFF1D7"/>
<path d="M4.00961 9.36675L9.36178 3.13124C9.96036 2.43387 11.0396 2.43387 11.6382 3.13124L16.9904 9.36675L17.2961 11.5477C17.5716 13.5129 17.5581 15.508 17.256 17.4693C17.1032 18.4619 16.2491 19.1945 15.2449 19.1945H5.75506C4.75085 19.1945 3.89679 18.4619 3.74395 17.4693C3.44191 15.508 3.42842 13.513 3.7039 11.5477L4.00961 9.36675Z" stroke="#FFB422" stroke-width="2.25" stroke-linejoin="round"/>
<path d="M10.4999 12.1334C11.8814 12.1334 13.0014 13.2533 13.0014 14.6348V19.1946H7.99854V14.6348C7.99854 13.2533 9.11846 12.1334 10.4999 12.1334Z" fill="white" stroke="#FFB422" stroke-width="2.25" stroke-linecap="round" stroke-linejoin="round"/>
</svg>
